<mxfile host="app.diagrams.net" modified="2023-07-11T18:38:35.907Z" agent="Mozilla/5.0 (X11; Linux x86_64; rv:109.0) Gecko/20100101 Firefox/114.0" version="21.3.6" etag="3uKR2ECRfJ7Fu0yrvV_f" type="github">
  <diagram name="Seite-1" id="YZr2Ww0plCoIui0DmnP6">
    <mxGraphModel>
      <root>
        <mxCell id="0" />
        <mxCell id="1" parent="0" />
      </root>
    </mxGraphModel>
  </diagram>
</mxfile>
